<?xml version="1.0" standalone="no"?>
<!DOCTYPE svg PUBLIC "-//W3C//DTD SVG 20010904//EN"
 "http://www.w3.org/TR/2001/REC-SVG-20010904/DTD/svg10.dtd">
<svg version="1.0" xmlns="http://www.w3.org/2000/svg"
 width="360.000000pt" height="360.000000pt" viewBox="0 0 360.000000 360.000000"
 preserveAspectRatio="xMidYMid meet">
<metadata>
Created by potrace 1.11, written by Peter Selinger 2001-2013
</metadata>
<g transform="translate(0.000000,360.000000) scale(0.100000,-0.100000)"
fill="#000000" stroke="none">
<path d="M0 1800 l0 -1800 1800 0 1800 0 0 1800 0 1800 -1800 0 -1800 0 0
-1800z m1070 1544 c43 -18 70 -42 81 -72 7 -19 -2 -42 -50 -125 -111 -193
-111 -198 -2 -70 96 113 279 224 365 223 102 -3 228 -127 261 -258 37 -144
-33 -261 -239 -396 l-67 -44 43 -22 c133 -68 210 -225 211 -430 1 -115 -13
-181 -61 -280 -108 -222 -362 -328 -626 -260 -131 33 -264 117 -360 227 -49
57 -14 100 96 119 35 6 40 3 138 -90 129 -122 177 -148 287 -154 75 -4 88 -2
138 23 67 32 124 99 156 182 27 72 37 231 20 315 -28 131 -103 228 -207 267
-43 17 -67 19 -136 14 -72 -5 -89 -3 -123 15 -49 24 -89 66 -83 84 3 8 40 19
88 26 157 25 323 100 424 193 61 56 111 144 122 215 13 86 -49 184 -116 184
-107 0 -225 -98 -394 -324 -172 -231 -230 -322 -300 -473 -35 -76 -108 -228
-161 -338 -54 -110 -126 -265 -160 -345 -61 -141 -63 -145 -95 -148 -18 -2
-45 2 -61 9 -37 15 -79 64 -79 91 0 11 23 75 51 142 94 225 560 1179 657 1346
43 74 57 106 47 108 -27 6 -99 -41 -180 -119 -79 -76 -114 -94 -131 -68 -16
27 183 194 271 227 65 24 126 26 175 6z m1093 -1376 c50 -15 127 -86 127 -116
0 -12 -40 -137 -90 -278 -49 -140 -90 -258 -90 -260 0 -10 97 62 138 103 46
46 133 175 177 262 35 71 67 101 104 101 24 0 32 -5 37 -25 19 -76 -42 -173
-197 -314 -126 -115 -169 -149 -245 -192 -48 -27 -52 -33 -71 -97 -12 -37 -46
-148 -77 -247 -30 -99 -73 -250 -95 -335 l-40 -155 85 88 c136 142 283 333
402 523 45 73 54 96 82 225 38 170 68 255 115 327 50 74 105 112 165 112 65 0
110 -17 110 -41 0 -47 -229 -484 -356 -682 -38 -59 -46 -81 -60 -165 -8 -53
-18 -171 -21 -262 l-5 -165 37 35 c56 53 225 266 303 382 166 248 339 590 493
974 27 70 48 129 45 132 -15 14 -126 -59 -206 -135 -86 -82 -117 -97 -128 -64
-6 19 141 158 210 199 78 46 157 66 208 52 58 -16 110 -64 110 -103 0 -66
-213 -556 -365 -837 -165 -308 -386 -615 -558 -778 -49 -45 -60 -52 -84 -46
-35 8 -84 37 -107 63 -25 27 -32 199 -17 375 6 71 10 130 8 132 -1 2 -35 -38
-73 -89 -168 -217 -424 -467 -479 -467 -70 0 -135 52 -135 108 0 73 80 384
181 704 27 86 49 158 49 161 0 3 -25 8 -54 12 -91 11 -140 55 -176 157 -52
150 9 346 151 487 125 124 270 175 392 139z"/>
<path d="M2045 1933 c-130 -29 -271 -150 -336 -288 -56 -118 -58 -219 -6 -323
25 -51 62 -75 129 -85 l37 -6 27 82 c15 45 69 200 121 345 51 145 91 268 88
273 -6 9 -25 10 -60 2z"/>
<path d="M2602 1581 c-26 -35 -93 -197 -91 -219 0 -4 29 51 65 122 36 70 63
130 60 133 -2 3 -18 -14 -34 -36z"/>
</g>
</svg>
